<svg xmlns="http://www.w3.org/2000/svg" width="351.117" height="351.117" viewBox="0 0 92.9 92.9"><defs><filter id="a" width="2.181" height="2.181" x="-.59" y="-.59" style="color-interpolation-filters:sRGB"><feTurbulence baseFrequency="0.013 0.013" result="turbulence" seed="1" type="fractalNoise"/><feDisplacementMap in="SourceGraphic" in2="turbulence" result="fbSourceGraphic" scale="6.6" xChannelSelector="R" yChannelSelector="G"/><feColorMatrix in="fbSourceGraphic" result="fbSourceGraphicAlpha" values="0 0 0 -1 0 0 0 0 -1 0 0 0 0 -1 0 0 0 0 1 0"/><feGaussianBlur in="fbSourceGraphic" result="result6" stdDeviation="1"/><feComposite in="result6" in2="result6" operator="in" result="result7"/><feGaussianBlur in="result7" result="result3" stdDeviation="7"/><feComposite in2="result7" result="result91"/><feComposite in="result3" in2="result91" operator="in" result="result5"/><feColorMatrix result="result4" values="0 0 0 -1 0 0 0 0 -1 0 0 0 0 -1 0 0 0 0 1 0"/><feSpecularLighting in="result4" result="result11" specularConstant="2" specularExponent="45" surfaceScale="3"><fePointLight x="-5000" y="-10000" z="20000"/></feSpecularLighting><feComposite in2="result4" k1="1" operator="arithmetic" result="result10"/><feComposite in="result5" in2="result10" k2=".6" k3="1" operator="arithmetic" result="result8"/><feGaussianBlur in="result8" result="result31" stdDeviation="2"/><feComposite in2="result8" result="result9"/><feBlend in2="result9"/></filter></defs><path d="M57.07 58.191a2.15 2.15 0 0 0-2.115 2.184l.113 7.27-7.27.113a2.15 2.15 0 0 0-2.117 2.183 2.15 2.15 0 0 0 2.184 2.118l7.27-.114.113 7.27a2.15 2.15 0 0 0 2.184 2.115 2.15 2.15 0 0 0 2.117-2.183l-.114-7.27 7.268-.113a2.15 2.15 0 0 0 2.117-2.184 2.15 2.15 0 0 0-2.183-2.115l-7.27.113-.113-7.27a2.15 2.15 0 0 0-2.184-2.117m.182-9.73c-11.748 0-21.3 9.552-21.3 21.3s9.552 21.3 21.3 21.3 21.299-9.551 21.299-21.3c0-11.748-9.55-21.3-21.299-21.3m0 2.6c10.343 0 18.7 8.358 18.7 18.7 0 10.344-8.357 18.7-18.7 18.7s-18.701-8.356-18.701-18.7c0-10.342 8.358-18.7 18.701-18.7" style="baseline-shift:baseline;display:inline;overflow:visible;opacity:1;vector-effect:none;stroke-linecap:round;stroke-linejoin:round;filter:url(#a);enable-background:accumulate;stop-color:#000;stop-opacity:1" transform="translate(-10.801 -23.31)"/><path d="M57.07 58.191a2.15 2.15 0 0 0-2.115 2.184l.113 7.27-7.27.113a2.15 2.15 0 0 0-2.117 2.183 2.15 2.15 0 0 0 2.184 2.118l7.27-.114.113 7.27a2.15 2.15 0 0 0 2.184 2.115 2.15 2.15 0 0 0 2.117-2.183l-.114-7.27 7.268-.113a2.15 2.15 0 0 0 2.117-2.184 2.15 2.15 0 0 0-2.183-2.115l-7.27.113-.113-7.27a2.15 2.15 0 0 0-2.184-2.117m.182-9.73c-11.748 0-21.3 9.552-21.3 21.3s9.552 21.3 21.3 21.3 21.299-9.551 21.299-21.3c0-11.748-9.55-21.3-21.299-21.3m0 2.6c10.343 0 18.7 8.358 18.7 18.7 0 10.344-8.357 18.7-18.7 18.7s-18.701-8.356-18.701-18.7c0-10.342 8.358-18.7 18.701-18.7" style="baseline-shift:baseline;display:inline;overflow:visible;opacity:1;stroke:#2d1000;stroke-width:2.3;stroke-linecap:round;stroke-linejoin:round;stroke-dasharray:none;stroke-opacity:1;filter:url(#a);enable-background:accumulate;stop-color:#000;stop-opacity:1;fill:#510;fill-opacity:1" transform="translate(-10.801 -23.31)"/></svg>